<?xml version="1.0" encoding="utf-8"?>
<!-- Generator: Adobe Illustrator 23.0.5, SVG Export Plug-In . SVG Version: 6.00 Build 0)  -->
<svg version="1.1" id="Layer_1" xmlns="http://www.w3.org/2000/svg" xmlns:xlink="http://www.w3.org/1999/xlink" x="0px" y="0px"
	 viewBox="0 0 1019.57 638.57" style="enable-background:new 0 0 1019.57 638.57;" xml:space="preserve">
<style type="text/css">
	.st0{fill:#059033;}
	.st1{fill:#FFBB07;}
	.st2{font-family:'HelveticaRounded-Bold';}
	.st3{font-size:50.4885px;}
	.st4{letter-spacing:2;}
	.st5{font-family:'Helvetica-Light';}
	.st6{font-size:26.5064px;}
	.st7{letter-spacing:10;}
	.st8{fill:#FFFFFF;}
</style>
<g>
	<g>
		<g>
			<path class="st0" d="M685.65,82.84C685.65,82.85,685.65,82.85,685.65,82.84c-0.01,0.01-0.03,0.02-0.04,0.03
				c-0.83,0.62-14.31,10.76-17.97,24.83c-1.74,6.29-2.22,11.41-1.34,15.62c0.69,3.34,2.16,6.06,2.88,7.26
				c0.01,0.01,0.01,0.01,0.01,0.01c0.27,0.43,0.43,0.67,0.43,0.67l-15.27-2.97h-0.01l-0.01-0.01l-0.15-0.03
				c0-0.01-0.01-0.01-0.01-0.01h-0.01l-16.61-3.22c0,0,1.33-0.54,3.33-1.6c0.88-0.47,1.9-1.04,2.99-1.7
				c0.24-0.15,0.49-0.3,0.74-0.46h0.01c5.56-3.52,12.72-9.44,14.88-17.52c3.57-13.37-3.29-23.3-4.73-25.19
				c-0.09-0.11-0.18-0.21-0.27-0.33L685.65,82.84C685.65,82.85,685.65,82.85,685.65,82.84z"/>
			<path class="st0" d="M690.59,49.49c7.94,9.96,6.29,24.47-3.67,32.41c-9.96,7.94-24.47,6.29-32.41-3.67
				c-7.94-9.96-6.29-24.47,3.67-32.41C668.15,37.88,682.66,39.53,690.59,49.49L690.59,49.49z"/>
			<path class="st0" d="M718.28,128.67l-0.35,29.17c-0.03-0.04-0.06-0.08-0.09-0.12c-0.95-1.19-9.19-10.97-23.66-10.44
				c-3.49,0.13-6.8,1.19-9.82,2.73h-0.01c-0.86,0.44-1.7,0.92-2.51,1.42c-4.85,3.04-8.72,7.06-11,9.74
				c-0.01,0.01-0.01,0.01-0.01,0.01c-1.17,1.39-1.92,2.4-2.16,2.73v0.01c-0.05,0.06-0.08,0.1-0.08,0.1V164l0.75-24.19l0.02-0.64
				v-0.01l0.25-7.9c0,0,0.18,0.21,0.54,0.54c1,0.98,3.34,3.04,6.46,4.47c3.91,1.79,9,2.47,15.53,2.18
				c13.06-0.59,25.59-9.4,26.12-9.78C718.27,128.68,718.28,128.67,718.28,128.67z"/>
			<path class="st0" d="M754.01,129.1c-7.94-9.96-22.45-11.61-32.41-3.67c-9.96,7.94-11.61,22.45-3.67,32.41
				c7.94,9.96,22.45,11.61,32.41,3.67C760.31,153.57,761.95,139.06,754.01,129.1L754.01,129.1z"/>
			<path class="st0" d="M670.85,161.16c-0.01,0.01-0.01,0.01-0.01,0.01c-0.64,0.95-1.36,1.86-2.16,2.73v0.01
				c-0.03,0.03-0.05,0.06-0.08,0.08c-0.88,0.96-1.84,1.86-2.89,2.69c-10.89,8.68-26.77,6.89-35.45-4.01
				c-8.68-10.9-6.89-26.77,4.01-35.45c2.05-1.63,4.28-2.9,6.61-3.8c1.27-0.49,2.59-0.88,3.91-1.16c0.33-0.07,0.65-0.13,0.97-0.18
				c8.5-1.45,17.49,1.52,23.42,8.49c0.01,0.01,0.01,0.01,0.01,0.01c0.18,0.21,0.36,0.43,0.54,0.65c0.15,0.18,0.29,0.37,0.43,0.56
				c2.61,3.45,4.18,7.37,4.78,11.39c0.09,0.57,0.16,1.15,0.2,1.74h0.01C675.59,150.6,674.12,156.36,670.85,161.16z"/>
		</g>
		<path class="st1" d="M635.13,282.16c0.01,0.01,0,0.01,0,0.01c0.2,3.41-0.66,6.85-1.6,10.15c-0.26,0.91-0.52,1.8-0.8,2.7
			c-0.01,0.05-0.03,0.1-0.04,0.15c-0.03,0.09-0.06,0.18-0.08,0.27c-0.25,0.8-0.5,1.59-0.75,2.38c-0.28,0.86-0.56,1.72-0.85,2.57
			c-0.02,0.04-0.03,0.09-0.05,0.14c-0.28,0.82-0.57,1.65-0.87,2.46c-0.05,0.16-0.11,0.32-0.17,0.47c-0.28,0.8-0.59,1.6-0.89,2.4
			c-0.3,0.8-0.61,1.58-0.92,2.36c-0.41,1.02-0.83,2.04-1.25,3.05c-0.03,0.06-0.06,0.13-0.08,0.2c-0.02,0.04-0.04,0.09-0.06,0.14
			c-0.29,0.69-0.59,1.38-0.89,2.06c-0.18,0.41-0.35,0.81-0.54,1.21c-0.18,0.4-0.36,0.81-0.54,1.21c-0.32,0.71-0.64,1.41-0.98,2.11
			c-0.03,0.08-0.07,0.15-0.1,0.22c-0.03,0.05-0.04,0.09-0.07,0.15c-0.04,0.08-0.08,0.16-0.11,0.23c-0.23,0.49-0.47,0.98-0.71,1.47
			c-0.06,0.15-0.14,0.3-0.21,0.44c-0.41,0.85-0.83,1.69-1.25,2.52c-0.01,0.03-0.03,0.06-0.04,0.09l-0.01,0.01
			c0,0.01,0,0.01-0.01,0.01c-0.01,0.01-0.01,0.03-0.02,0.04c-0.01,0.04-0.03,0.07-0.05,0.11c-0.01,0.02-0.02,0.04-0.03,0.06
			c-0.01,0.04-0.03,0.07-0.04,0.1c-0.01,0.01-0.01,0.03-0.02,0.04c-0.21,0.44-0.42,0.88-0.64,1.33c-0.28,0.57-0.56,1.13-0.83,1.69
			c-0.64,1.26-1.29,2.51-1.96,3.76c-0.29,0.55-0.59,1.09-0.88,1.63c-0.63,1.17-1.29,2.34-1.96,3.5c-0.33,0.58-0.67,1.16-1.01,1.74
			c-0.28,0.49-0.57,0.97-0.87,1.46c-0.75,1.26-1.52,2.51-2.32,3.75c-0.35,0.56-0.71,1.12-1.08,1.67c-0.3,0.47-0.61,0.95-0.93,1.41
			c-0.32,0.49-0.65,0.98-0.98,1.46c-0.36,0.54-0.72,1.07-1.09,1.6c-0.25,0.36-0.5,0.72-0.75,1.08c-0.28,0.4-0.57,0.8-0.85,1.2
			c-7.72,11.62-16.1,22.92-24.46,34.47l-0.54,0.74l-11.27,15.58c0,0,29.42,0,58.79,0h57.91c4.71-5.11,9.18-10.55,13.37-16.3
			c0.01-0.01,0.01-0.01,0.01-0.02c0.12-0.16,0.23-0.32,0.35-0.47c0.2-0.28,0.4-0.55,0.59-0.83c0.16-0.23,0.33-0.45,0.49-0.69
			c0.04-0.06,0.08-0.11,0.13-0.18c0-0.01,0.01-0.01,0.01-0.01c4.03-5.7,7.67-11.56,10.96-17.53c13.51-24.61,20.76-51.33,22.09-78.1
			c0.08-1.46,0.13-2.93,0.16-4.4c0.04-1.57,0.06-3.15,0.06-4.72c-0.01-12.27-1.24-24.49-3.69-36.48c-0.01-0.03-0.01-0.06-0.02-0.09
			c-0.41-2.02-0.86-4.03-1.34-6.03c0-0.02-0.01-0.04-0.01-0.06c-0.66-2.44-1.46-4.83-2.38-7.16c-4.91-12.5-13.34-23.22-24.08-30.96
			c-0.5-0.35-1-0.69-1.5-1.03c-0.23-0.16-0.46-0.32-0.69-0.47c-0.23-0.15-0.46-0.31-0.7-0.46c-0.33-0.22-0.67-0.44-1.01-0.65
			c-3.42-2.18-6.97-4.2-10.63-6.01c-0.01-0.01-0.01-0.01-0.02-0.01c-0.48-0.21-0.95-0.42-1.43-0.62c-0.4-0.17-0.8-0.34-1.19-0.5
			c-0.34-0.15-0.68-0.29-1.03-0.43c-0.01-0.01-0.02-0.01-0.03-0.01c-1.79-0.74-3.58-1.44-5.38-2.11c-0.61-0.23-1.21-0.45-1.82-0.67
			c-0.79-0.29-1.58-0.57-2.37-0.84c-0.42-0.15-0.85-0.3-1.27-0.44c-1.24-0.42-2.49-0.83-3.74-1.22c-0.59-0.19-1.18-0.37-1.77-0.55
			c-0.54-0.16-1.07-0.32-1.61-0.48c-0.91-0.27-1.82-0.52-2.73-0.78c-0.14-0.04-0.28-0.08-0.42-0.11c-0.14-0.04-0.28-0.08-0.42-0.11
			c-0.01-0.01-0.01-0.01-0.02-0.01c-0.01,0-0.01,0-0.02-0.01c-0.03-0.01-0.06-0.01-0.08-0.02c-0.01-0.01-0.02-0.01-0.03-0.01
			c-0.07-0.03-0.14-0.04-0.21-0.06c-0.44-0.12-0.88-0.23-1.31-0.35c-0.3-0.08-0.59-0.16-0.9-0.23c-0.57-0.15-1.14-0.28-1.7-0.42
			c-1.38-0.34-2.77-0.66-4.17-0.97c-0.4-0.09-0.81-0.18-1.21-0.27c-1.24-0.27-2.49-0.51-3.74-0.75c-0.62-0.12-1.25-0.23-1.87-0.35
			c-1.25-0.23-2.5-0.44-3.75-0.63c-0.54-0.09-1.09-0.17-1.63-0.25c-1.34-0.2-2.67-0.38-4.01-0.55c-1.22-0.16-2.46-0.3-3.68-0.43
			c-1.73-0.18-3.46-0.33-5.19-0.47c-0.4-0.03-0.81-0.06-1.21-0.09c-0.43-0.03-0.85-0.06-1.28-0.09c-0.6-0.03-1.2-0.07-1.8-0.1h-0.03
			c-0.4-0.96-0.81-1.91-1.24-2.87c-0.42-0.95-0.86-1.9-1.29-2.85c-0.44-0.95-0.89-1.89-1.34-2.83c-0.45-0.94-0.92-1.87-1.39-2.8
			c-0.4-0.8-0.81-1.58-1.23-2.37c-0.13-0.26-0.27-0.51-0.4-0.76c-0.33-0.64-0.68-1.27-1.03-1.9c-0.13-0.24-0.26-0.48-0.39-0.72
			c-0.37-0.66-0.74-1.33-1.12-1.98c-0.75-1.33-1.52-2.64-2.31-3.94c-0.39-0.66-0.79-1.31-1.2-1.96c-0.03-0.05-0.06-0.1-0.09-0.15
			c-0.51-0.81-1.02-1.63-1.55-2.44c-0.06-0.11-0.13-0.21-0.2-0.31c-0.43-0.67-0.87-1.34-1.32-2.01c-0.16-0.25-0.33-0.5-0.49-0.74
			c-0.53-0.78-1.06-1.56-1.6-2.34c-0.59-0.86-1.2-1.71-1.81-2.56c-0.01-0.01-0.01-0.02-0.03-0.03c-0.62-0.86-1.25-1.71-1.89-2.56
			c-1.27-1.7-2.58-3.38-3.92-5.03c-0.4-0.5-0.81-1-1.22-1.5c-0.87-1.07-1.77-2.12-2.67-3.17c-0.37-0.43-0.74-0.85-1.12-1.27
			c-0.43-0.49-0.86-0.98-1.3-1.46c-0.09-0.11-0.19-0.21-0.29-0.32c-0.44-0.49-0.88-0.97-1.33-1.45c-0.47-0.5-0.93-1.01-1.41-1.51
			c-0.28-0.3-0.57-0.61-0.86-0.9c2.53,2.68,4.84,5.57,6.9,8.63c-2.08-3.06-4.39-5.95-6.9-8.63c-0.04-0.04-0.08-0.09-0.12-0.13
			c-0.03-0.03-0.05-0.06-0.08-0.08c-0.01-0.01-0.03-0.03-0.04-0.04c-0.42-0.44-0.85-0.88-1.28-1.32l-0.23-0.23
			c-0.93-0.93-1.89-1.83-2.88-2.69c-0.32-0.29-0.66-0.58-0.99-0.86c-0.66-0.57-1.34-1.13-2.03-1.67c-0.34-0.27-0.69-0.54-1.04-0.81
			c-0.35-0.27-0.7-0.52-1.05-0.78c-0.35-0.26-0.71-0.51-1.07-0.76c-1.09-0.77-2.21-1.51-3.34-2.2c-0.36-0.23-0.73-0.45-1.09-0.66
			c-0.37-0.22-0.74-0.44-1.12-0.66c-0.78-0.44-1.56-0.87-2.35-1.27c-0.32-0.17-0.65-0.33-0.98-0.49c-0.31-0.16-0.61-0.31-0.92-0.45
			c-0.39-0.19-0.78-0.37-1.17-0.54c-1.19-0.55-2.39-1.06-3.62-1.53c-0.33-0.13-0.66-0.26-0.98-0.38c-0.25-0.09-0.51-0.19-0.77-0.28
			c-0.88-0.32-1.76-0.62-2.66-0.9c-0.43-0.13-0.86-0.27-1.29-0.39c-0.43-0.13-0.86-0.25-1.3-0.37c-0.42-0.11-0.85-0.23-1.27-0.33
			c-0.45-0.11-0.9-0.22-1.35-0.32c-0.88-0.2-1.77-0.38-2.67-0.56c-0.42-0.08-0.85-0.16-1.27-0.23c-0.04-0.01-0.07-0.02-0.1-0.02
			c-0.06-0.01-0.11-0.01-0.16-0.03c-5.18-0.73-10.44-0.98-15.7-0.8c-0.02-0.01-0.04-0.01-0.06,0c-0.53,0.03-1.06,0.08-1.58,0.12
			c-0.09,0-0.18,0.01-0.27,0.03c-0.44,0.04-0.88,0.08-1.31,0.13c-0.01,0-0.03,0-0.04,0.01c-0.02-0.01-0.03,0-0.05,0.01h-0.03
			c-0.11,0.01-0.2,0.02-0.31,0.04c-0.36,0.04-0.72,0.09-1.08,0.13c-0.12,0.01-0.24,0.03-0.36,0.04c-0.06,0.01-0.11,0.02-0.16,0.03
			c-0.15,0.02-0.3,0.04-0.45,0.06c-23.89,3.19-47.12,11.09-68.18,23.5c-21.12,12.77-39.69,29.82-54.05,49.67l-8.69,12.02
			l-97.83,135.26l-0.56,0.78l-3.7,5.12l-0.69,0.96l-8.41,11.63l-0.51,0.71l-1.04,1.43l-1.82,2.51l-22.32,30.86l-21,29.04
			c0,0,118.75,0,118.76-0.01l2.16-2.99l0.37-0.5l0.19-0.27l1.55-2.14l-0.1-0.08l0.08-0.11l14.35-19.84l0.57-0.78l11.83-16.35l0.72-1
			l3.19-4.4l0.25-0.35c0.06-0.01,0.12-0.02,0.18-0.03c14.58-20.16,29.16-40.32,43.75-60.48c10.86-15.01,20.77-30.81,32.27-45.34
			c0.01-0.01,0.01-0.01,0.01-0.01c0.92-1.18,1.87-2.35,2.82-3.51c6.71-8.17,13.99-15.87,21.75-23.04c0.23-0.21,0.47-0.44,0.71-0.65
			c1.47-1.34,2.99-2.78,4.55-4.23c0.01-0.02,0.02-0.03,0.03-0.03c4.73-4.41,9.91-9.02,15.6-11.86c0.65-0.39,1.33-0.73,2.02-1.02
			l2.61-0.85c0.01,0,0.03,0,0.03-0.01c0.69-0.21,1.39-0.38,2.1-0.53c6.25-1.27,12.87,1.68,16.21,7.09c1.81,2.95,2.42,6.26,2.35,9.63
			c-0.08,3.79-1.03,7.65-2.11,11.13c-0.75,2.41-1.56,4.8-2.42,7.15c-13.88,37.85-42.07,68.93-65.38,101.15
			c-7.78,10.75-15.55,21.5-23.33,32.26l-7.45,10.31c-0.38,0.54-2.92,3.18-2.81,3.88c0.02,0.11,0.04,0.23,0.06,0.35
			c-0.15,0.08-0.31,0.15-0.47,0.22l-0.5,0.7l-11.97,16.55h76.72l5.48-7.58l20.85-28.82c0,0,13.81-19.1,13.81-19.1l0.19-0.27
			l0.7-0.97c8.5-11.74,16.57-24.11,25.45-35.73c0.01-0.03,0.03-0.05,0.05-0.08c8.76-11.47,18.28-22.23,29.73-30.95
			c2.87-2.2,5.87-4.26,9.01-6.18c0.01-0.01,0.03-0.01,0.04-0.03c0.33-0.2,0.66-0.4,0.99-0.6c0.97-0.58,1.97-1.12,2.98-1.62
			c0.01-0.01,0.03-0.01,0.04-0.02c0.68-0.4,1.39-0.74,2.12-1.04c0.01-0.01,0.02-0.01,0.03-0.01c1.08-0.43,2.2-0.74,3.34-0.94
			c0.02-0.01,0.03-0.01,0.05-0.01c3.13-0.71,6.37-0.69,9.66,0.5c5.24,1.92,9.42,6.71,10.29,12.22
			C635.05,281.11,635.1,281.64,635.13,282.16 M306.07,346.41c-0.14-0.21-0.28-0.42-0.42-0.62c0.14,0.21,0.28,0.42,0.43,0.63
			c0.06,0.1,0.13,0.21,0.2,0.31C306.21,346.61,306.14,346.51,306.07,346.41z M634,203.39c-0.03-0.11-0.05-0.21-0.07-0.32
			C633.95,203.18,633.98,203.28,634,203.39l0.03,0.09C634.02,203.45,634.01,203.42,634,203.39z"/>
	</g>
	<text transform="matrix(1 0 0 1 67.6801 466.1041)" class="st1 st2 st3 st4">Mango Software Solution</text>
	<text transform="matrix(1 0 0 1 68.306 510.5773)" class="st5 st6 st7">let’s change the world thorugh it</text>
</g>
</svg>
